<svg height="512pt" viewBox="0 0 512 512" width="512pt" xmlns="http://www.w3.org/2000/svg"><path d="m502 136h-104v-78c-.007812 0-.015625 0-.023438-.003906 0-2.597656-.992187-5.15625-2.90625-7.066406l-48-48c-1.875-1.875-4.417968-2.929688-7.070312-2.929688h-168c-2.652344 0-5.195312 1.054688-7.070312 2.929688l-48 48c-1.914063 1.914062-2.90625 4.472656-2.90625 7.078124-.007813-.003906-.015626-.003906-.023438-.007812v78h-104c-5.523438 0-10 4.476562-10 10v289c0 2.652344 1.054688 5.195312 2.929688 7.070312l67 67c1.875 1.875 4.417968 2.929688 7.070312 2.929688h197.832031c5.523438 0 10-4.476562 10-10s-4.476562-10-10-10h-193.691406l-61.140625-61.144531v-274.855469h472v274.855469l-61.140625 61.144531h-76.027344c-5.523437 0-10 4.476562-10 10s4.476563 10 10 10h80.167969c2.652344 0 5.195312-1.054688 7.070312-2.929688l67-67c1.875-1.875 2.929688-4.417968 2.929688-7.070312v-289c0-5.523438-4.476562-10-10-10zm-325.859375-116h159.71875l28 28h-215.71875zm153.859375 48v68h-148v-68zm-196 68v-68h28v68zm216 0v-68h28v68zm0 0"/><path d="m284.550781 219.265625c-5.523437 0-10 4.476563-10 10v72c0 5.519531 4.476563 10 10 10 5.523438 0 10-4.480469 10-10v-12.019531l19.414063 19.222656c1.949218 1.933594 4.492187 2.894531 7.035156 2.894531 2.574219 0 5.152344-.988281 7.105469-2.960937 3.886719-3.925782 3.855469-10.257813-.070313-14.144532l-29.296875-29.011718 29.421875-29.339844c3.910156-3.898438 3.921875-10.230469.019532-14.140625-3.898438-3.914063-10.230469-3.917969-14.140626-.019531l-19.484374 19.429687v-11.910156c-.003907-5.523437-4.480469-10-10.003907-10zm0 0"/><path d="m399.804688 239.265625c5.523437 0 10-4.476563 10-10s-4.476563-10-10-10h-22c-11.027344 0-20 8.972656-20 20v52c0 11.027344 8.972656 20 20 20h22c5.523437 0 10-4.480469 10-10 0-5.523437-4.476563-10-10-10h-22v-16h22c5.523437 0 10-4.480469 10-10 0-5.523437-4.476563-10-10-10h-22v-16zm0 0"/><path d="m137.949219 311.269531c5.523437 0 10-4.476562 10-10v-62h14c5.523437 0 10-4.476562 10-10 0-5.523437-4.476563-10-10-10h-48c-5.523438 0-10 4.476563-10 10 0 5.523438 4.476562 10 10 10h14v62c0 5.523438 4.476562 10 10 10zm0 0"/><path d="m197.65625 304.78125 2.863281-7.632812h29.550781l2.863282 7.632812c1.503906 4.015625 5.3125 6.492188 9.363281 6.492188 1.167969 0 2.351563-.207032 3.511719-.640626 5.167968-1.9375 7.789062-7.703124 5.851562-12.875l-27-72.003906c-1.464844-3.902344-5.195312-6.488281-9.363281-6.488281s-7.902344 2.585937-9.363281 6.488281l-27 72.003906c-1.941406 5.171876.679687 10.9375 5.851562 12.875s10.933594-.679687 12.871094-5.851562zm17.640625-47.035156 7.273437 19.402344h-14.550781zm0 0"/><path d="m206.175781 440.714844c4.4375 0 8.347657-2.925782 9.59375-7.1875l11.511719-39.269532 11.515625 39.269532c1.246094 4.261718 5.15625 7.1875 9.59375 7.1875s8.347656-2.925782 9.597656-7.1875l21.105469-72.003906c1.554688-5.300782-1.480469-10.855469-6.78125-12.410157-5.296875-1.554687-10.855469 1.484375-12.410156 6.78125l-11.511719 39.273438-11.511719-39.273438c-1.25-4.257812-5.15625-7.183593-9.597656-7.183593-4.4375 0-8.34375 2.925781-9.59375 7.183593l-11.511719 39.273438-11.511719-39.273438c-1.554687-5.296875-7.109374-8.335937-12.410156-6.78125-5.300781 1.554688-8.335937 7.109375-6.78125 12.410157l21.105469 72.003906c1.25 4.261718 5.15625 7.1875 9.597656 7.1875zm0 0"/><path d="m347.550781 350.324219c-4.628906 3.011719-5.945312 9.203125-2.933593 13.835937l21.785156 33.515625v33.039063c0 5.523437 4.476562 10 10 10 5.523437 0 10-4.476563 10-10v-33.039063l21.789062-33.515625c3.007813-4.632812 1.695313-10.824218-2.933594-13.835937-4.628906-3.011719-10.824218-1.695313-13.835937 2.9375l-15.019531 23.101562-15.015625-23.101562c-3.011719-4.632813-9.207031-5.949219-13.835938-2.9375zm0 0"/><path d="m108.683594 440.078125c5.175781 1.941406 10.9375-.679687 12.875-5.851563l2.863281-7.632812h29.550781l2.859375 7.632812c1.507813 4.015626 5.316407 6.492188 9.367188 6.492188 1.164062 0 2.351562-.207031 3.507812-.640625 5.171875-1.9375 7.792969-7.703125 5.851563-12.875l-27-72.003906c-1.460938-3.902344-5.195313-6.488281-9.363282-6.488281-4.167968 0-7.898437 2.585937-9.359374 6.488281l-27 72.003906c-1.941407 5.171875.675781 10.9375 5.847656 12.875zm30.511718-52.886719 7.273438 19.402344h-14.546875zm0 0"/><path d="m351.925781 427.078125-27-72.003906c-1.464843-3.902344-5.195312-6.488281-9.363281-6.488281s-7.902344 2.585937-9.363281 6.488281l-27 72.003906c-1.941407 5.171875.679687 10.9375 5.851562 12.875s10.933594-.683594 12.875-5.851563l2.859375-7.632812h29.550782l2.863281 7.632812c1.503906 4.011719 5.316406 6.492188 9.363281 6.492188 1.167969 0 2.351562-.207031 3.511719-.640625 5.167969-1.9375 7.789062-7.703125 5.851562-12.875zm-43.640625-20.609375 7.277344-19.402344 7.273438 19.402344zm0 0"/><path d="m314.828125 492c-2.628906 0-5.207031 1.070312-7.066406 2.929688-1.863281 1.859374-2.933594 4.441406-2.933594 7.070312s1.070313 5.210938 2.933594 7.070312c1.859375 1.859376 4.4375 2.929688 7.066406 2.929688 2.640625 0 5.210937-1.070312 7.070313-2.929688 1.871093-1.859374 2.929687-4.441406 2.929687-7.070312s-1.058594-5.210938-2.929687-7.070312c-1.859376-1.859376-4.4375-2.929688-7.070313-2.929688zm0 0"/></svg>